<mxfile host="app.diagrams.net" modified="2023-10-18T02:06:45.180Z" agent="Mozilla/5.0 (Macintosh; Intel Mac OS X 10_15_7) AppleWebKit/537.36 (KHTML, like Gecko) Chrome/118.0.0.0 Safari/537.36 Edg/118.0.2088.46" etag="54o9ULc0i1eDpWVBP5IV" version="22.0.4" type="device">
  <diagram name="第 1 页" id="4R6DWM8a-jUx7wCUBCxM">
    <mxGraphModel dx="2765" dy="1584" grid="1" gridSize="10" guides="1" tooltips="1" connect="1" arrows="1" fold="1" page="1" pageScale="1" pageWidth="827" pageHeight="1169" math="0" shadow="0">
      <root>
        <mxCell id="0" />
        <mxCell id="1" parent="0" />
        <mxCell id="JASLSfP3Me-1BCeENSN9-1" value="DistributionSpec" style="swimlane;fontStyle=0;childLayout=stackLayout;horizontal=1;startSize=26;fillColor=#dae8fc;horizontalStack=0;resizeParent=1;resizeParentMax=0;resizeLast=0;collapsible=1;marginBottom=0;whiteSpace=wrap;html=1;strokeColor=#6c8ebf;" parent="1" vertex="1">
          <mxGeometry x="450" y="400" width="180" height="78" as="geometry" />
        </mxCell>
        <mxCell id="JASLSfP3Me-1BCeENSN9-2" value="+ type:&amp;nbsp;DistributionType" style="text;strokeColor=#666666;fillColor=#f5f5f5;align=left;verticalAlign=top;spacingLeft=4;spacingRight=4;overflow=hidden;rotatable=0;points=[[0,0.5],[1,0.5]];portConstraint=eastwest;whiteSpace=wrap;html=1;fontColor=#333333;" parent="JASLSfP3Me-1BCeENSN9-1" vertex="1">
          <mxGeometry y="26" width="180" height="26" as="geometry" />
        </mxCell>
        <mxCell id="JASLSfP3Me-1BCeENSN9-3" value="+ propertyInfo: PropertyInfo" style="text;strokeColor=none;fillColor=none;align=left;verticalAlign=top;spacingLeft=4;spacingRight=4;overflow=hidden;rotatable=0;points=[[0,0.5],[1,0.5]];portConstraint=eastwest;whiteSpace=wrap;html=1;" parent="JASLSfP3Me-1BCeENSN9-1" vertex="1">
          <mxGeometry y="52" width="180" height="26" as="geometry" />
        </mxCell>
        <mxCell id="JASLSfP3Me-1BCeENSN9-5" value="AnyDistributionSpec" style="swimlane;fontStyle=0;childLayout=stackLayout;horizontal=1;startSize=26;fillColor=#e1d5e7;horizontalStack=0;resizeParent=1;resizeParentMax=0;resizeLast=0;collapsible=1;marginBottom=0;whiteSpace=wrap;html=1;strokeColor=#9673a6;" parent="1" vertex="1">
          <mxGeometry x="120" y="550" width="150" height="52" as="geometry" />
        </mxCell>
        <mxCell id="JASLSfP3Me-1BCeENSN9-6" value="+ DistributionType.ANY&lt;span style=&quot;background-color: initial;&quot;&gt;:&lt;/span&gt;" style="text;strokeColor=none;fillColor=none;align=left;verticalAlign=top;spacingLeft=4;spacingRight=4;overflow=hidden;rotatable=0;points=[[0,0.5],[1,0.5]];portConstraint=eastwest;whiteSpace=wrap;html=1;" parent="JASLSfP3Me-1BCeENSN9-5" vertex="1">
          <mxGeometry y="26" width="150" height="26" as="geometry" />
        </mxCell>
        <mxCell id="JASLSfP3Me-1BCeENSN9-8" value="GatherDistributionSpec" style="swimlane;fontStyle=0;childLayout=stackLayout;horizontal=1;startSize=26;fillColor=#e1d5e7;horizontalStack=0;resizeParent=1;resizeParentMax=0;resizeLast=0;collapsible=1;marginBottom=0;whiteSpace=wrap;html=1;strokeColor=#9673a6;" parent="1" vertex="1">
          <mxGeometry x="288" y="550" width="150" height="78" as="geometry" />
        </mxCell>
        <mxCell id="JASLSfP3Me-1BCeENSN9-9" value="+ DistributionType.Gather" style="text;strokeColor=none;fillColor=none;align=left;verticalAlign=top;spacingLeft=4;spacingRight=4;overflow=hidden;rotatable=0;points=[[0,0.5],[1,0.5]];portConstraint=eastwest;whiteSpace=wrap;html=1;" parent="JASLSfP3Me-1BCeENSN9-8" vertex="1">
          <mxGeometry y="26" width="150" height="26" as="geometry" />
        </mxCell>
        <mxCell id="JASLSfP3Me-1BCeENSN9-20" value="+ limit: Long" style="text;strokeColor=#666666;fillColor=#f5f5f5;align=left;verticalAlign=top;spacingLeft=4;spacingRight=4;overflow=hidden;rotatable=0;points=[[0,0.5],[1,0.5]];portConstraint=eastwest;whiteSpace=wrap;html=1;fontColor=#333333;" parent="JASLSfP3Me-1BCeENSN9-8" vertex="1">
          <mxGeometry y="52" width="150" height="26" as="geometry" />
        </mxCell>
        <mxCell id="JASLSfP3Me-1BCeENSN9-10" value="HashDistributionSpec" style="swimlane;fontStyle=0;childLayout=stackLayout;horizontal=1;startSize=26;fillColor=#e1d5e7;horizontalStack=0;resizeParent=1;resizeParentMax=0;resizeLast=0;collapsible=1;marginBottom=0;whiteSpace=wrap;html=1;strokeColor=#9673a6;" parent="1" vertex="1">
          <mxGeometry x="488" y="550" width="266" height="78" as="geometry" />
        </mxCell>
        <mxCell id="JASLSfP3Me-1BCeENSN9-11" value="+ DistributionType.Shuffle" style="text;strokeColor=none;fillColor=none;align=left;verticalAlign=top;spacingLeft=4;spacingRight=4;overflow=hidden;rotatable=0;points=[[0,0.5],[1,0.5]];portConstraint=eastwest;whiteSpace=wrap;html=1;" parent="JASLSfP3Me-1BCeENSN9-10" vertex="1">
          <mxGeometry y="26" width="266" height="26" as="geometry" />
        </mxCell>
        <mxCell id="JASLSfP3Me-1BCeENSN9-19" value="+ HashDistributionDesc:&amp;nbsp;HashDistributionDesc" style="text;strokeColor=#b85450;fillColor=#f8cecc;align=left;verticalAlign=top;spacingLeft=4;spacingRight=4;overflow=hidden;rotatable=0;points=[[0,0.5],[1,0.5]];portConstraint=eastwest;whiteSpace=wrap;html=1;" parent="JASLSfP3Me-1BCeENSN9-10" vertex="1">
          <mxGeometry y="52" width="266" height="26" as="geometry" />
        </mxCell>
        <mxCell id="JASLSfP3Me-1BCeENSN9-12" value="ReplicatedDistributionSpec" style="swimlane;fontStyle=0;childLayout=stackLayout;horizontal=1;startSize=26;fillColor=#e1d5e7;horizontalStack=0;resizeParent=1;resizeParentMax=0;resizeLast=0;collapsible=1;marginBottom=0;whiteSpace=wrap;html=1;strokeColor=#9673a6;" parent="1" vertex="1">
          <mxGeometry x="791" y="550" width="170" height="52" as="geometry" />
        </mxCell>
        <mxCell id="JASLSfP3Me-1BCeENSN9-13" value="+ DistributionType.Broadcast" style="text;strokeColor=none;fillColor=none;align=left;verticalAlign=top;spacingLeft=4;spacingRight=4;overflow=hidden;rotatable=0;points=[[0,0.5],[1,0.5]];portConstraint=eastwest;whiteSpace=wrap;html=1;" parent="JASLSfP3Me-1BCeENSN9-12" vertex="1">
          <mxGeometry y="26" width="170" height="26" as="geometry" />
        </mxCell>
        <mxCell id="JASLSfP3Me-1BCeENSN9-15" style="edgeStyle=orthogonalEdgeStyle;rounded=0;orthogonalLoop=1;jettySize=auto;html=1;exitX=0.534;exitY=-0.009;exitDx=0;exitDy=0;entryX=0.433;entryY=1.013;entryDx=0;entryDy=0;entryPerimeter=0;exitPerimeter=0;" parent="1" source="JASLSfP3Me-1BCeENSN9-5" edge="1">
          <mxGeometry relative="1" as="geometry">
            <mxPoint x="220" y="549.6600000000001" as="sourcePoint" />
            <mxPoint x="502.94000000000005" y="477.99799999999993" as="targetPoint" />
            <Array as="points">
              <mxPoint x="200" y="510" />
              <mxPoint x="503" y="510" />
            </Array>
          </mxGeometry>
        </mxCell>
        <mxCell id="JASLSfP3Me-1BCeENSN9-16" style="edgeStyle=orthogonalEdgeStyle;rounded=0;orthogonalLoop=1;jettySize=auto;html=1;exitX=0.5;exitY=0;exitDx=0;exitDy=0;" parent="1" source="JASLSfP3Me-1BCeENSN9-8" target="JASLSfP3Me-1BCeENSN9-3" edge="1">
          <mxGeometry relative="1" as="geometry">
            <Array as="points">
              <mxPoint x="363" y="520" />
              <mxPoint x="520" y="520" />
            </Array>
          </mxGeometry>
        </mxCell>
        <mxCell id="JASLSfP3Me-1BCeENSN9-17" style="edgeStyle=orthogonalEdgeStyle;rounded=0;orthogonalLoop=1;jettySize=auto;html=1;exitX=0.5;exitY=0;exitDx=0;exitDy=0;entryX=0.498;entryY=1.008;entryDx=0;entryDy=0;entryPerimeter=0;" parent="1" source="JASLSfP3Me-1BCeENSN9-10" target="JASLSfP3Me-1BCeENSN9-3" edge="1">
          <mxGeometry relative="1" as="geometry">
            <Array as="points">
              <mxPoint x="611" y="550" />
              <mxPoint x="611" y="520" />
              <mxPoint x="540" y="520" />
            </Array>
          </mxGeometry>
        </mxCell>
        <mxCell id="JASLSfP3Me-1BCeENSN9-18" style="edgeStyle=orthogonalEdgeStyle;rounded=0;orthogonalLoop=1;jettySize=auto;html=1;" parent="1" edge="1" source="JASLSfP3Me-1BCeENSN9-12">
          <mxGeometry relative="1" as="geometry">
            <mxPoint x="845.0000000000001" y="548" as="sourcePoint" />
            <mxPoint x="554" y="478" as="targetPoint" />
            <Array as="points">
              <mxPoint x="861" y="508" />
              <mxPoint x="554" y="508" />
            </Array>
          </mxGeometry>
        </mxCell>
        <mxCell id="JASLSfP3Me-1BCeENSN9-21" value="HashDistributionDesc" style="swimlane;fontStyle=0;childLayout=stackLayout;horizontal=1;startSize=26;fillColor=#f8cecc;horizontalStack=0;resizeParent=1;resizeParentMax=0;resizeLast=0;collapsible=1;marginBottom=0;whiteSpace=wrap;html=1;strokeColor=#b85450;" parent="1" vertex="1">
          <mxGeometry x="370" y="700" width="160" height="78" as="geometry" />
        </mxCell>
        <mxCell id="JASLSfP3Me-1BCeENSN9-22" value="+ sourceType: SourceType" style="text;strokeColor=#0e8088;fillColor=#b0e3e6;align=left;verticalAlign=top;spacingLeft=4;spacingRight=4;overflow=hidden;rotatable=0;points=[[0,0.5],[1,0.5]];portConstraint=eastwest;whiteSpace=wrap;html=1;" parent="JASLSfP3Me-1BCeENSN9-21" vertex="1">
          <mxGeometry y="26" width="160" height="26" as="geometry" />
        </mxCell>
        <mxCell id="JASLSfP3Me-1BCeENSN9-23" value="+ columns: List&amp;lt;Integer&amp;gt;" style="text;strokeColor=none;fillColor=none;align=left;verticalAlign=top;spacingLeft=4;spacingRight=4;overflow=hidden;rotatable=0;points=[[0,0.5],[1,0.5]];portConstraint=eastwest;whiteSpace=wrap;html=1;" parent="JASLSfP3Me-1BCeENSN9-21" vertex="1">
          <mxGeometry y="52" width="160" height="26" as="geometry" />
        </mxCell>
        <mxCell id="JASLSfP3Me-1BCeENSN9-24" value="HashDistributionDesc.SourceType" style="swimlane;fontStyle=0;childLayout=stackLayout;horizontal=1;startSize=26;fillColor=#b0e3e6;horizontalStack=0;resizeParent=1;resizeParentMax=0;resizeLast=0;collapsible=1;marginBottom=0;whiteSpace=wrap;html=1;strokeColor=#0e8088;" parent="1" vertex="1">
          <mxGeometry x="641" y="721" width="230" height="156" as="geometry" />
        </mxCell>
        <mxCell id="JASLSfP3Me-1BCeENSN9-25" value="+ LOCAL" style="text;strokeColor=none;fillColor=none;align=left;verticalAlign=top;spacingLeft=4;spacingRight=4;overflow=hidden;rotatable=0;points=[[0,0.5],[1,0.5]];portConstraint=eastwest;whiteSpace=wrap;html=1;" parent="JASLSfP3Me-1BCeENSN9-24" vertex="1">
          <mxGeometry y="26" width="230" height="26" as="geometry" />
        </mxCell>
        <mxCell id="JASLSfP3Me-1BCeENSN9-26" value="+ SHUFFLE_AGG" style="text;strokeColor=none;fillColor=none;align=left;verticalAlign=top;spacingLeft=4;spacingRight=4;overflow=hidden;rotatable=0;points=[[0,0.5],[1,0.5]];portConstraint=eastwest;whiteSpace=wrap;html=1;" parent="JASLSfP3Me-1BCeENSN9-24" vertex="1">
          <mxGeometry y="52" width="230" height="26" as="geometry" />
        </mxCell>
        <mxCell id="JASLSfP3Me-1BCeENSN9-27" value="+ SHUFFLE_JOIN" style="text;strokeColor=none;fillColor=none;align=left;verticalAlign=top;spacingLeft=4;spacingRight=4;overflow=hidden;rotatable=0;points=[[0,0.5],[1,0.5]];portConstraint=eastwest;whiteSpace=wrap;html=1;" parent="JASLSfP3Me-1BCeENSN9-24" vertex="1">
          <mxGeometry y="78" width="230" height="26" as="geometry" />
        </mxCell>
        <mxCell id="JASLSfP3Me-1BCeENSN9-28" value="+ BUCKET" style="text;strokeColor=none;fillColor=none;align=left;verticalAlign=top;spacingLeft=4;spacingRight=4;overflow=hidden;rotatable=0;points=[[0,0.5],[1,0.5]];portConstraint=eastwest;whiteSpace=wrap;html=1;" parent="JASLSfP3Me-1BCeENSN9-24" vertex="1">
          <mxGeometry y="104" width="230" height="26" as="geometry" />
        </mxCell>
        <mxCell id="JASLSfP3Me-1BCeENSN9-29" value="+ SHUFFLE_ENFORCE" style="text;strokeColor=none;fillColor=none;align=left;verticalAlign=top;spacingLeft=4;spacingRight=4;overflow=hidden;rotatable=0;points=[[0,0.5],[1,0.5]];portConstraint=eastwest;whiteSpace=wrap;html=1;" parent="JASLSfP3Me-1BCeENSN9-24" vertex="1">
          <mxGeometry y="130" width="230" height="26" as="geometry" />
        </mxCell>
        <mxCell id="3f905-TFHHiZuMLbh7fx-21" style="edgeStyle=orthogonalEdgeStyle;rounded=0;orthogonalLoop=1;jettySize=auto;html=1;exitX=0.5;exitY=0;exitDx=0;exitDy=0;entryX=0.25;entryY=1;entryDx=0;entryDy=0;" edge="1" parent="1" source="3f905-TFHHiZuMLbh7fx-1" target="3f905-TFHHiZuMLbh7fx-12">
          <mxGeometry relative="1" as="geometry" />
        </mxCell>
        <mxCell id="3f905-TFHHiZuMLbh7fx-1" value="DistributionProperty" style="swimlane;fontStyle=0;childLayout=stackLayout;horizontal=1;startSize=26;fillColor=#008a00;horizontalStack=0;resizeParent=1;resizeParentMax=0;resizeLast=0;collapsible=1;marginBottom=0;whiteSpace=wrap;html=1;strokeColor=#005700;fontColor=#ffffff;" vertex="1" parent="1">
          <mxGeometry x="590" y="284" width="160" height="78" as="geometry" />
        </mxCell>
        <mxCell id="3f905-TFHHiZuMLbh7fx-2" value="+&amp;nbsp;spec&lt;span style=&quot;background-color: initial;&quot;&gt;:&amp;nbsp;&lt;/span&gt;DistributionSpec" style="text;strokeColor=#A50040;fillColor=#d80073;align=left;verticalAlign=top;spacingLeft=4;spacingRight=4;overflow=hidden;rotatable=0;points=[[0,0.5],[1,0.5]];portConstraint=eastwest;whiteSpace=wrap;html=1;fontColor=#ffffff;" vertex="1" parent="3f905-TFHHiZuMLbh7fx-1">
          <mxGeometry y="26" width="160" height="26" as="geometry" />
        </mxCell>
        <mxCell id="3f905-TFHHiZuMLbh7fx-3" value="+&amp;nbsp;isCTERequired&lt;span style=&quot;background-color: initial;&quot;&gt;: Boolean&lt;/span&gt;" style="text;strokeColor=none;fillColor=none;align=left;verticalAlign=top;spacingLeft=4;spacingRight=4;overflow=hidden;rotatable=0;points=[[0,0.5],[1,0.5]];portConstraint=eastwest;whiteSpace=wrap;html=1;" vertex="1" parent="3f905-TFHHiZuMLbh7fx-1">
          <mxGeometry y="52" width="160" height="26" as="geometry" />
        </mxCell>
        <mxCell id="3f905-TFHHiZuMLbh7fx-12" value="PhysicalProperty" style="html=1;whiteSpace=wrap;fillColor=#0050ef;strokeColor=#001DBC;fontColor=#ffffff;" vertex="1" parent="1">
          <mxGeometry x="938" y="200" width="160" height="30" as="geometry" />
        </mxCell>
        <mxCell id="3f905-TFHHiZuMLbh7fx-22" style="edgeStyle=orthogonalEdgeStyle;rounded=0;orthogonalLoop=1;jettySize=auto;html=1;exitX=0.5;exitY=0;exitDx=0;exitDy=0;entryX=0.5;entryY=1;entryDx=0;entryDy=0;" edge="1" parent="1" target="3f905-TFHHiZuMLbh7fx-12">
          <mxGeometry relative="1" as="geometry">
            <mxPoint x="1018" y="310" as="sourcePoint" />
          </mxGeometry>
        </mxCell>
        <mxCell id="3f905-TFHHiZuMLbh7fx-14" value="SortProperty" style="swimlane;fontStyle=0;childLayout=stackLayout;horizontal=1;startSize=26;fillColor=#008a00;horizontalStack=0;resizeParent=1;resizeParentMax=0;resizeLast=0;collapsible=1;marginBottom=0;whiteSpace=wrap;html=1;strokeColor=#005700;fontColor=#ffffff;" vertex="1" parent="1">
          <mxGeometry x="961" y="284" width="160" height="78" as="geometry" />
        </mxCell>
        <mxCell id="3f905-TFHHiZuMLbh7fx-15" value="+&amp;nbsp;spec&lt;span style=&quot;background-color: initial;&quot;&gt;: OrderSpec&lt;/span&gt;" style="text;strokeColor=#A50040;fillColor=#d80073;align=left;verticalAlign=top;spacingLeft=4;spacingRight=4;overflow=hidden;rotatable=0;points=[[0,0.5],[1,0.5]];portConstraint=eastwest;whiteSpace=wrap;html=1;fontColor=#ffffff;" vertex="1" parent="3f905-TFHHiZuMLbh7fx-14">
          <mxGeometry y="26" width="160" height="26" as="geometry" />
        </mxCell>
        <mxCell id="3f905-TFHHiZuMLbh7fx-16" value="+&amp;nbsp;isCTERequired&lt;span style=&quot;background-color: initial;&quot;&gt;: Boolean&lt;/span&gt;" style="text;strokeColor=none;fillColor=none;align=left;verticalAlign=top;spacingLeft=4;spacingRight=4;overflow=hidden;rotatable=0;points=[[0,0.5],[1,0.5]];portConstraint=eastwest;whiteSpace=wrap;html=1;" vertex="1" parent="3f905-TFHHiZuMLbh7fx-14">
          <mxGeometry y="52" width="160" height="26" as="geometry" />
        </mxCell>
        <mxCell id="3f905-TFHHiZuMLbh7fx-23" style="edgeStyle=orthogonalEdgeStyle;rounded=0;orthogonalLoop=1;jettySize=auto;html=1;exitX=0.5;exitY=0;exitDx=0;exitDy=0;entryX=0.75;entryY=1;entryDx=0;entryDy=0;" edge="1" parent="1" source="3f905-TFHHiZuMLbh7fx-18" target="3f905-TFHHiZuMLbh7fx-12">
          <mxGeometry relative="1" as="geometry" />
        </mxCell>
        <mxCell id="3f905-TFHHiZuMLbh7fx-18" value="CTEProperty" style="swimlane;fontStyle=0;childLayout=stackLayout;horizontal=1;startSize=26;fillColor=#008a00;horizontalStack=0;resizeParent=1;resizeParentMax=0;resizeLast=0;collapsible=1;marginBottom=0;whiteSpace=wrap;html=1;strokeColor=#005700;fontColor=#ffffff;" vertex="1" parent="1">
          <mxGeometry x="1391" y="284" width="160" height="52" as="geometry" />
        </mxCell>
        <mxCell id="3f905-TFHHiZuMLbh7fx-19" value="+&amp;nbsp;cteIds&lt;span style=&quot;background-color: initial;&quot;&gt;: Set&amp;lt;&lt;/span&gt;Integer&amp;gt;" style="text;strokeColor=#666666;fillColor=#f5f5f5;align=left;verticalAlign=top;spacingLeft=4;spacingRight=4;overflow=hidden;rotatable=0;points=[[0,0.5],[1,0.5]];portConstraint=eastwest;whiteSpace=wrap;html=1;fontColor=#333333;" vertex="1" parent="3f905-TFHHiZuMLbh7fx-18">
          <mxGeometry y="26" width="160" height="26" as="geometry" />
        </mxCell>
        <mxCell id="3f905-TFHHiZuMLbh7fx-24" value="" style="endArrow=open;html=1;endSize=12;startArrow=diamondThin;startSize=14;startFill=1;edgeStyle=orthogonalEdgeStyle;align=left;verticalAlign=bottom;rounded=1;exitX=0;exitY=0.5;exitDx=0;exitDy=0;dashed=1;strokeColor=#F19C99;strokeWidth=2;" edge="1" parent="1" source="JASLSfP3Me-1BCeENSN9-19">
          <mxGeometry x="-1" y="3" relative="1" as="geometry">
            <mxPoint x="438" y="670" as="sourcePoint" />
            <mxPoint x="450" y="700" as="targetPoint" />
            <Array as="points">
              <mxPoint x="450" y="615" />
            </Array>
          </mxGeometry>
        </mxCell>
        <mxCell id="3f905-TFHHiZuMLbh7fx-26" value="OrderSpec" style="swimlane;fontStyle=0;childLayout=stackLayout;horizontal=1;startSize=26;fillColor=#dae8fc;horizontalStack=0;resizeParent=1;resizeParentMax=0;resizeLast=0;collapsible=1;marginBottom=0;whiteSpace=wrap;html=1;strokeColor=#6c8ebf;" vertex="1" parent="1">
          <mxGeometry x="1181" y="400" width="170" height="52" as="geometry" />
        </mxCell>
        <mxCell id="3f905-TFHHiZuMLbh7fx-27" value="+orderDescs: List&amp;lt;Ordering&amp;gt;" style="text;strokeColor=#666666;fillColor=#f5f5f5;align=left;verticalAlign=top;spacingLeft=4;spacingRight=4;overflow=hidden;rotatable=0;points=[[0,0.5],[1,0.5]];portConstraint=eastwest;whiteSpace=wrap;html=1;fontColor=#333333;" vertex="1" parent="3f905-TFHHiZuMLbh7fx-26">
          <mxGeometry y="26" width="170" height="26" as="geometry" />
        </mxCell>
        <mxCell id="3f905-TFHHiZuMLbh7fx-30" value="ReplicatedDistributionSpec" style="swimlane;fontStyle=0;childLayout=stackLayout;horizontal=1;startSize=26;fillColor=#e1d5e7;horizontalStack=0;resizeParent=1;resizeParentMax=0;resizeLast=0;collapsible=1;marginBottom=0;whiteSpace=wrap;html=1;strokeColor=#9673a6;" vertex="1" parent="1">
          <mxGeometry x="1171" y="550" width="190" height="104" as="geometry" />
        </mxCell>
        <mxCell id="3f905-TFHHiZuMLbh7fx-31" value="+&amp;nbsp;columnRef:&amp;nbsp;ColumnRefOperator" style="text;strokeColor=none;fillColor=none;align=left;verticalAlign=top;spacingLeft=4;spacingRight=4;overflow=hidden;rotatable=0;points=[[0,0.5],[1,0.5]];portConstraint=eastwest;whiteSpace=wrap;html=1;" vertex="1" parent="3f905-TFHHiZuMLbh7fx-30">
          <mxGeometry y="26" width="190" height="26" as="geometry" />
        </mxCell>
        <mxCell id="3f905-TFHHiZuMLbh7fx-33" value="+&amp;nbsp;isAsc&lt;span style=&quot;background-color: initial;&quot;&gt;:&amp;nbsp;&lt;/span&gt;boolean" style="text;strokeColor=none;fillColor=none;align=left;verticalAlign=top;spacingLeft=4;spacingRight=4;overflow=hidden;rotatable=0;points=[[0,0.5],[1,0.5]];portConstraint=eastwest;whiteSpace=wrap;html=1;" vertex="1" parent="3f905-TFHHiZuMLbh7fx-30">
          <mxGeometry y="52" width="190" height="26" as="geometry" />
        </mxCell>
        <mxCell id="3f905-TFHHiZuMLbh7fx-34" value="+&amp;nbsp;isNullFirst&lt;span style=&quot;background-color: initial;&quot;&gt;:&amp;nbsp;&lt;/span&gt;boolean" style="text;strokeColor=none;fillColor=none;align=left;verticalAlign=top;spacingLeft=4;spacingRight=4;overflow=hidden;rotatable=0;points=[[0,0.5],[1,0.5]];portConstraint=eastwest;whiteSpace=wrap;html=1;" vertex="1" parent="3f905-TFHHiZuMLbh7fx-30">
          <mxGeometry y="78" width="190" height="26" as="geometry" />
        </mxCell>
        <mxCell id="3f905-TFHHiZuMLbh7fx-32" style="edgeStyle=orthogonalEdgeStyle;rounded=0;orthogonalLoop=1;jettySize=auto;html=1;exitX=0.5;exitY=0;exitDx=0;exitDy=0;entryX=0.497;entryY=1.04;entryDx=0;entryDy=0;entryPerimeter=0;" edge="1" parent="1" source="3f905-TFHHiZuMLbh7fx-30" target="3f905-TFHHiZuMLbh7fx-27">
          <mxGeometry relative="1" as="geometry" />
        </mxCell>
        <mxCell id="3f905-TFHHiZuMLbh7fx-35" value="" style="endArrow=open;html=1;endSize=12;startArrow=diamondThin;startSize=14;startFill=1;edgeStyle=orthogonalEdgeStyle;align=left;verticalAlign=bottom;rounded=1;entryX=0.527;entryY=0.027;entryDx=0;entryDy=0;entryPerimeter=0;dashed=1;exitX=1;exitY=0.5;exitDx=0;exitDy=0;strokeWidth=2;strokeColor=#CC0066;" edge="1" parent="1" source="3f905-TFHHiZuMLbh7fx-14" target="3f905-TFHHiZuMLbh7fx-26">
          <mxGeometry x="-1" y="3" relative="1" as="geometry">
            <mxPoint x="1121" y="349" as="sourcePoint" />
            <mxPoint x="1281" y="348.5" as="targetPoint" />
          </mxGeometry>
        </mxCell>
        <mxCell id="3f905-TFHHiZuMLbh7fx-37" value="1" style="endArrow=open;html=1;endSize=12;startArrow=diamondThin;startSize=14;startFill=1;edgeStyle=orthogonalEdgeStyle;align=left;verticalAlign=bottom;rounded=1;entryX=0.5;entryY=0;entryDx=0;entryDy=0;dashed=1;strokeWidth=2;strokeColor=#CC0066;" edge="1" parent="1" source="3f905-TFHHiZuMLbh7fx-2" target="JASLSfP3Me-1BCeENSN9-1">
          <mxGeometry x="-1" y="3" relative="1" as="geometry">
            <mxPoint x="491" y="362" as="sourcePoint" />
            <mxPoint x="651" y="362" as="targetPoint" />
          </mxGeometry>
        </mxCell>
        <mxCell id="3f905-TFHHiZuMLbh7fx-38" value="" style="endArrow=open;startArrow=circlePlus;endFill=0;startFill=0;endSize=8;html=1;rounded=0;" edge="1" parent="1">
          <mxGeometry width="160" relative="1" as="geometry">
            <mxPoint x="530" y="738.73" as="sourcePoint" />
            <mxPoint x="641" y="740" as="targetPoint" />
          </mxGeometry>
        </mxCell>
      </root>
    </mxGraphModel>
  </diagram>
</mxfile>
